<svg width="734" height="546" viewBox="0 0 734 546" fill="none" xmlns="http://www.w3.org/2000/svg">
<rect width="734" height="546" fill="#F5F5F5"/>
<g id="girl">
<path id="Vector" d="M583.591 532.478H571.331L565.499 485.19H583.593L583.591 532.478Z" fill="#9E616A"/>
<path id="Vector_2" d="M586.717 544.362L547.187 544.361V543.861C547.187 539.78 548.808 535.867 551.694 532.981C554.579 530.096 558.492 528.475 562.573 528.475H562.574L586.718 528.476L586.717 544.362Z" fill="#2F2E41"/>
<path id="Vector_3" d="M491.214 532.075L479.406 528.776L486.513 481.663L503.94 486.532L491.214 532.075Z" fill="#9E616A"/>
<path id="front-foot" d="M491.027 544.362L452.955 533.724L453.089 533.242C454.188 529.312 456.802 525.979 460.358 523.977C463.913 521.974 468.118 521.466 472.049 522.564L472.05 522.564L495.303 529.062L491.027 544.362Z" fill="#2F2E41"/>
<path id="Vector_4" d="M567.282 243.782L569.408 258.337C569.408 258.337 596.229 311.652 567.118 337.819C567.118 337.819 523.616 469.007 511.187 486.669L500.795 508.414L480.795 505.414L493.198 430.738L514.131 324.081L517.238 240.838C517.238 240.838 563.03 237.568 567.282 243.782Z" fill="#2F2E41"/>
<path id="Vector_5" d="M562.212 334.529L576.931 417.963C576.931 417.963 584.781 456.232 585.435 470.95C586.09 485.669 588.706 504.64 588.706 504.64L562.212 508.892L536.046 396.675L562.212 334.529Z" fill="#2F2E41"/>
<path id="Vector_6" d="M583.795 171.414L581.89 219.98L571.829 242.235L568.1 250.487L514.131 249.833L519.691 212.219C511.841 191.939 530.485 183.762 530.485 183.762L546.185 167.032L544.795 145.414L568.427 140.914C580.725 138.573 574.795 156.414 574.795 156.414C591.149 154.778 583.795 171.414 583.795 171.414Z" fill="#2B7AF1"/>
<path id="Vector_7" d="M475.645 217.414C475.834 217.116 475.343 216.467 474.549 215.964C473.755 215.462 472.959 215.295 472.77 215.593C472.581 215.891 473.072 216.54 473.866 217.042C474.66 217.545 475.456 217.711 475.645 217.414Z" fill="#3F3D56"/>
<path id="Vector_8" d="M472.858 211.874C473.067 211.543 473.339 211.257 473.659 211.032C473.979 210.807 474.34 210.647 474.721 210.561C475.103 210.476 475.498 210.466 475.883 210.533C476.268 210.6 476.636 210.742 476.967 210.951L514.702 234.847C515.032 235.056 515.318 235.328 515.543 235.648C515.768 235.968 515.928 236.328 516.014 236.71C516.1 237.092 516.109 237.486 516.043 237.872C515.976 238.257 515.834 238.625 515.624 238.955L472.858 211.874Z" fill="#2B7AF1"/>
<path id="Vector_9" d="M469.29 213.138L470.477 211.263C470.766 210.807 471.224 210.484 471.75 210.366C472.277 210.248 472.829 210.344 473.285 210.632L516.249 237.84C516.789 238.182 517.171 238.724 517.311 239.348C517.451 239.971 517.338 240.625 516.996 241.165L516.01 242.723L469.29 213.138Z" fill="#3F3D56"/>
<path id="Vector_10" d="M475.687 214.167L475.232 214.886L478.107 216.707L478.562 215.988L475.687 214.167Z" fill="#D0CDE1"/>
<path id="Vector_11" d="M479.64 216.671L479.185 217.389L482.06 219.21L482.515 218.491L479.64 216.671Z" fill="#D0CDE1"/>
<path id="Vector_12" d="M509.677 222.667C510.139 222.972 510.575 223.313 510.983 223.687L559.158 211.913L562.551 200.352L580.667 203.192L576.65 224.242C576.325 225.942 575.458 227.491 574.178 228.657C572.898 229.822 571.274 230.541 569.551 230.706L513.384 236.059C512.45 237.976 510.955 239.562 509.098 240.609C507.241 241.655 505.109 242.11 502.986 241.915C500.864 241.72 498.85 240.884 497.215 239.517C495.579 238.15 494.399 236.317 493.83 234.263C493.261 232.208 493.332 230.029 494.032 228.016C494.731 226.002 496.028 224.25 497.748 222.991C499.468 221.732 501.531 221.027 503.662 220.969C505.793 220.911 507.891 221.504 509.677 222.667Z" fill="#9E616A"/>
<path id="Vector_13" d="M557.699 209.523C557.36 208.972 557.145 208.354 557.067 207.712C556.989 207.07 557.05 206.419 557.247 205.803L564.114 165.287C564.646 162.021 566.451 159.099 569.133 157.162C571.816 155.225 575.157 154.431 578.424 154.954C581.692 155.476 584.618 157.274 586.562 159.951C588.506 162.629 589.309 165.968 588.795 169.237L588.465 210.893C588.456 211.54 588.307 212.177 588.029 212.761C587.752 213.345 587.351 213.862 586.855 214.277C586.36 214.692 585.78 214.996 585.157 215.167C584.533 215.338 583.88 215.373 583.242 215.269L560.81 211.611C560.172 211.508 559.563 211.267 559.026 210.907C558.489 210.546 558.037 210.074 557.699 209.523Z" fill="#2B7AF1"/>
<g id="head">
<path id="Vector_14" d="M554.587 136.354C569.4 136.354 581.408 124.346 581.408 109.533C581.408 94.7201 569.4 82.712 554.587 82.712C539.774 82.712 527.766 94.7201 527.766 109.533C527.766 124.346 539.774 136.354 554.587 136.354Z" fill="#9E616A"/>
<path id="Vector_15" d="M567.295 76.4137C562.17 76.407 557.138 77.7893 552.736 80.4137H550.795C543.634 80.4137 536.767 83.2583 531.703 88.3218C526.64 93.3853 523.795 100.253 523.795 107.414H538.795V139.414H595.795V104.914C595.795 97.355 592.792 90.1059 587.448 84.7611C582.103 79.4163 574.854 76.4137 567.295 76.4137Z" fill="#2F2E41"/>
</g>
</g>
<g id="undraw_online_chat_re_c4lx 1">
<g id="send_box">
<path id="Vector_16" d="M121.202 0H484.397V119.231H470.64V150.414L439.456 119.231H121.202V0Z" fill="#E4E4E4"/>
<g id="Vector_17" filter="url(#filter0_d_0_1)">
<path d="M474.808 107.495H130.79V11.1105H399.89C419.753 11.1329 438.795 19.0332 452.841 33.0782C466.886 47.1232 474.786 66.1659 474.808 86.0285V107.495Z" fill="white"/>
</g>
</g>
<g id="recieve_box">
<path id="Vector_18" d="M363.195 171.414H0V290.644H13.757V321.828L44.941 290.644H363.195V171.414Z" fill="#E4E4E4"/>
<g id="Vector_19" filter="url(#filter1_d_0_1)">
<path d="M353.607 278.909H70.7231C54.5149 278.891 38.9758 272.444 27.5149 260.983C16.0539 249.522 9.60711 233.983 9.58875 217.775V182.524H353.607V278.909Z" fill="white"/>
</g>
</g>
<path id="msg-3" d="M327.993 246.466H40.4242V251.478H327.993V246.466Z" fill="#FFF738"/>
<path id="msg-2" d="M328.275 229.128H40.4242V234.14H328.275V229.128Z" fill="#24C22A"/>
<path id="msg-1" d="M328.795 211.79H40.4242V216.802H328.795V211.79Z" fill="#FF5348"/>
<g id="Mask group">
<rect id="Rectangle 1" x="217" y="34" width="157" height="47" fill="#D9D9D9"/>
<g id="emoji-groups">
<g id="laugh-2">
<path id="Vector_20" d="M351.384 81.0806C346.915 81.0806 342.547 79.7553 338.831 77.2724C335.115 74.7895 332.218 71.2604 330.508 67.1315C328.798 63.0025 328.35 58.4592 329.222 54.0759C330.094 49.6927 332.246 45.6664 335.406 42.5062C338.567 39.3461 342.593 37.194 346.976 36.3221C351.359 35.4502 355.903 35.8977 360.032 37.6079C364.161 39.3182 367.69 42.2144 370.173 45.9304C372.656 49.6463 373.981 54.0151 373.981 58.4842C373.974 64.4751 371.591 70.2186 367.355 74.4548C363.119 78.691 357.375 81.0738 351.384 81.0806ZM351.384 37.9421C347.322 37.9421 343.35 39.1469 339.972 41.4041C336.594 43.6613 333.961 46.8695 332.406 50.6231C330.851 54.3767 330.444 58.507 331.237 62.4918C332.03 66.4766 333.986 70.1369 336.859 73.0097C339.732 75.8826 343.392 77.8391 347.377 78.6317C351.362 79.4243 355.492 79.0175 359.246 77.4627C362.999 75.9079 366.207 73.275 368.465 69.8969C370.722 66.5187 371.927 62.5471 371.927 58.4842C371.927 55.7866 371.395 53.1154 370.363 50.6231C369.331 48.1308 367.817 45.8663 365.91 43.9588C364.002 42.0512 361.738 40.5381 359.246 39.5058C356.753 38.4734 354.082 37.9421 351.384 37.9421Z" fill="#AE57F2"/>
<path id="Vector_21" d="M360.628 56.43C363.465 56.43 365.764 54.1307 365.764 51.2945C365.764 48.4582 363.465 46.1589 360.628 46.1589C357.792 46.1589 355.493 48.4582 355.493 51.2945C355.493 54.1307 357.792 56.43 360.628 56.43Z" fill="#AE57F2"/>
<path id="Vector_22" d="M343.168 56.43C346.004 56.43 348.303 54.1307 348.303 51.2945C348.303 48.4582 346.004 46.1589 343.168 46.1589C340.331 46.1589 338.032 48.4582 338.032 51.2945C338.032 54.1307 340.331 56.43 343.168 56.43Z" fill="#AE57F2"/>
<path id="Vector_23" d="M344.982 62.5926C342.887 77.0899 359.517 80.0305 357.852 62.592C357.951 62.5802 345.653 62.6016 344.982 62.5926Z" fill="#AE57F2"/>
</g>
<g id="smile-2">
<path id="Vector_24" d="M304.531 49.2542C303.968 48.6928 303.205 48.3779 302.41 48.3785C301.614 48.3791 300.852 48.6952 300.29 49.2574C299.728 49.8196 299.411 50.5819 299.411 51.377C299.41 52.1721 299.725 52.9351 300.286 53.4983L304.531 57.743L308.775 53.4986C309.055 53.2201 309.276 52.8892 309.428 52.5249C309.579 52.1606 309.658 51.77 309.658 51.3754C309.658 50.9808 309.581 50.5901 309.43 50.2255C309.279 49.8609 309.058 49.5296 308.779 49.2506C308.5 48.9716 308.169 48.7503 307.804 48.5995C307.44 48.4486 307.049 48.3711 306.654 48.3714C306.26 48.3717 305.869 48.4498 305.505 48.6012C305.14 48.7526 304.809 48.9747 304.531 49.2542Z" fill="#FFA563"/>
<path id="Vector_25" d="M287.07 49.2542C286.507 48.6919 285.744 48.3761 284.948 48.3763C284.152 48.3765 283.389 48.6926 282.827 49.2552C282.264 49.8178 281.948 50.5807 281.948 51.3764C281.947 52.172 282.263 52.9353 282.825 53.4983L287.07 57.743L291.314 53.4986C291.594 53.2201 291.816 52.8892 291.967 52.5249C292.119 52.1606 292.197 51.77 292.197 51.3754C292.197 50.9808 292.12 50.5901 291.969 50.2255C291.818 49.8609 291.597 49.5296 291.318 49.2506C291.039 48.9716 290.708 48.7503 290.343 48.5995C289.979 48.4486 289.588 48.3711 289.194 48.3714C288.799 48.3717 288.408 48.4498 288.044 48.6012C287.68 48.7526 287.348 48.9747 287.07 49.2542Z" fill="#FFA563"/>
<path id="Vector_26" d="M296.192 81.0806C291.723 81.0806 287.354 79.7553 283.638 77.2724C279.922 74.7895 277.026 71.2604 275.315 67.1315C273.605 63.0025 273.158 58.4592 274.03 54.0759C274.901 49.6927 277.054 45.6664 280.214 42.5062C283.374 39.3461 287.4 37.194 291.783 36.3221C296.167 35.4502 300.71 35.8977 304.839 37.6079C308.968 39.3182 312.497 42.2144 314.98 45.9304C317.463 49.6463 318.788 54.0151 318.788 58.4842C318.781 64.4751 316.398 70.2186 312.162 74.4548C307.926 78.691 302.183 81.0738 296.192 81.0806ZM296.192 37.9421C292.129 37.9421 288.157 39.1469 284.779 41.4041C281.401 43.6613 278.768 46.8695 277.213 50.6231C275.658 54.3767 275.252 58.507 276.044 62.4918C276.837 66.4766 278.793 70.1369 281.666 73.0097C284.539 75.8826 288.199 77.8391 292.184 78.6317C296.169 79.4243 300.299 79.0175 304.053 77.4627C307.806 75.9079 311.015 73.275 313.272 69.8969C315.529 66.5187 316.734 62.5471 316.734 58.4842C316.734 55.7866 316.203 53.1154 315.17 50.6231C314.138 48.1308 312.625 45.8663 310.717 43.9588C308.81 42.0512 306.545 40.5381 304.053 39.5058C301.561 38.4734 298.889 37.9421 296.192 37.9421Z" fill="#FFA563"/>
<path id="Vector_27" d="M288.278 65.6015C292.975 71.9155 301.095 72.4825 305.436 65.6015H288.278Z" fill="#FFA563"/>
</g>
<g id="heart-2">
<path d="M241.393 79.1423L223.125 60.874C220.666 58.4159 219.257 55.1002 219.192 51.6243C219.128 48.1483 220.414 44.7828 222.78 42.2354C225.146 39.688 228.407 38.1572 231.878 37.9648C235.35 37.7725 238.76 38.9336 241.393 41.204C244.026 38.9339 247.436 37.7731 250.907 37.9656C254.378 38.1581 257.64 39.6889 260.005 42.2361C262.371 44.7833 263.657 48.1486 263.593 51.6244C263.529 55.1002 262.12 58.4157 259.662 60.874L241.393 79.1423Z" fill="#F84C9F"/>
<path d="M241.393 79.1423L223.125 60.874C220.666 58.4159 219.257 55.1002 219.192 51.6243C219.128 48.1483 220.414 44.7828 222.78 42.2354C225.146 39.688 228.407 38.1572 231.878 37.9648C235.35 37.7725 238.76 38.9336 241.393 41.204C244.026 38.9339 247.436 37.7731 250.907 37.9656C254.378 38.1581 257.64 39.6889 260.005 42.2361C262.371 44.7833 263.657 48.1486 263.593 51.6244C263.529 55.1002 262.12 58.4157 259.662 60.874L241.393 79.1423Z" stroke="black"/>
</g>
<g id="laugh-1">
<path id="Vector_28" d="M186.194 81.1927C181.725 81.1927 177.357 79.8675 173.641 77.3845C169.925 74.9016 167.028 71.3726 165.318 67.2436C163.608 63.1147 163.16 58.5713 164.032 54.188C164.904 49.8048 167.056 45.7785 170.216 42.6183C173.377 39.4582 177.403 37.3061 181.786 36.4342C186.169 35.5623 190.713 36.0098 194.842 37.7201C198.971 39.4303 202.5 42.3265 204.983 46.0425C207.466 49.7584 208.791 54.1272 208.791 58.5964C208.784 64.5872 206.401 70.3307 202.165 74.5669C197.929 78.8031 192.185 81.186 186.194 81.1927ZM186.194 38.0542C182.132 38.0542 178.16 39.259 174.782 41.5162C171.404 43.7734 168.771 46.9817 167.216 50.7352C165.661 54.4888 165.254 58.6192 166.047 62.6039C166.84 66.5887 168.796 70.249 171.669 73.1219C174.542 75.9947 178.202 77.9512 182.187 78.7438C186.172 79.5364 190.302 79.1296 194.056 77.5748C197.809 76.02 201.017 73.3871 203.275 70.009C205.532 66.6308 206.737 62.6592 206.737 58.5964C206.737 55.8987 206.205 53.2275 205.173 50.7352C204.141 48.2429 202.627 45.9784 200.72 44.0709C198.812 42.1634 196.548 40.6502 194.056 39.6179C191.563 38.5856 188.892 38.0542 186.194 38.0542Z" fill="#AE57F2"/>
<path id="Vector_29" d="M195.439 56.5421C198.275 56.5421 200.574 54.2429 200.574 51.4066C200.574 48.5703 198.275 46.2711 195.439 46.2711C192.602 46.2711 190.303 48.5703 190.303 51.4066C190.303 54.2429 192.602 56.5421 195.439 56.5421Z" fill="#AE57F2"/>
<path id="Vector_30" d="M177.978 56.5421C180.814 56.5421 183.113 54.2429 183.113 51.4066C183.113 48.5703 180.814 46.2711 177.978 46.2711C175.141 46.2711 172.842 48.5703 172.842 51.4066C172.842 54.2429 175.141 56.5421 177.978 56.5421Z" fill="#AE57F2"/>
<path id="Vector_31" d="M179.792 62.7047C177.697 77.202 194.327 80.1426 192.662 62.7042C192.761 62.6923 180.463 62.7137 179.792 62.7047Z" fill="#AE57F2"/>
</g>
<g id="smile-1">
<path id="Vector_32" d="M139.341 49.3663C138.778 48.8049 138.015 48.49 137.22 48.4906C136.424 48.4912 135.662 48.8073 135.1 49.3695C134.538 49.9317 134.221 50.694 134.221 51.4891C134.22 52.2843 134.535 53.0472 135.096 53.6104L139.341 57.8551L143.585 53.6107C143.865 53.3322 144.087 53.0013 144.238 52.637C144.389 52.2727 144.468 51.8821 144.468 51.4875C144.468 51.093 144.391 50.7022 144.24 50.3376C144.089 49.973 143.868 49.6417 143.589 49.3627C143.31 49.0837 142.979 48.8625 142.614 48.7116C142.25 48.5607 141.859 48.4832 141.464 48.4835C141.07 48.4838 140.679 48.5619 140.315 48.7133C139.951 48.8648 139.619 49.0868 139.341 49.3663Z" fill="#FFA563"/>
<path id="Vector_33" d="M121.88 49.3663C121.317 48.804 120.554 48.4882 119.758 48.4884C118.963 48.4886 118.199 48.8047 117.637 49.3673C117.074 49.9299 116.758 50.6928 116.758 51.4885C116.757 52.2842 117.073 53.0474 117.635 53.6104L121.88 57.8551L126.124 53.6107C126.404 53.3322 126.626 53.0013 126.777 52.637C126.929 52.2727 127.007 51.8821 127.007 51.4875C127.007 51.093 126.93 50.7022 126.779 50.3376C126.628 49.973 126.407 49.6417 126.128 49.3627C125.849 49.0837 125.518 48.8625 125.153 48.7116C124.789 48.5607 124.398 48.4832 124.004 48.4835C123.609 48.4838 123.218 48.5619 122.854 48.7133C122.49 48.8648 122.158 49.0868 121.88 49.3663Z" fill="#FFA563"/>
<path id="Vector_34" d="M131.002 81.1927C126.533 81.1927 122.164 79.8675 118.448 77.3845C114.732 74.9016 111.836 71.3726 110.126 67.2436C108.415 63.1147 107.968 58.5713 108.84 54.188C109.712 49.8048 111.864 45.7785 115.024 42.6183C118.184 39.4582 122.21 37.3061 126.593 36.4342C130.977 35.5623 135.52 36.0098 139.649 37.7201C143.778 39.4303 147.307 42.3265 149.79 46.0425C152.273 49.7584 153.598 54.1272 153.598 58.5964C153.591 64.5872 151.209 70.3308 146.972 74.5669C142.736 78.8031 136.993 81.186 131.002 81.1927ZM131.002 38.0542C126.939 38.0542 122.967 39.259 119.589 41.5162C116.211 43.7734 113.578 46.9816 112.023 50.7352C110.469 54.4888 110.062 58.6192 110.854 62.6039C111.647 66.5887 113.603 70.249 116.476 73.1219C119.349 75.9947 123.009 77.9512 126.994 78.7438C130.979 79.5364 135.109 79.1296 138.863 77.5748C142.617 76.02 145.825 73.3871 148.082 70.009C150.339 66.6308 151.544 62.6592 151.544 58.5964C151.544 55.8987 151.013 53.2275 149.98 50.7352C148.948 48.2429 147.435 45.9784 145.527 44.0709C143.62 42.1634 141.355 40.6502 138.863 39.6179C136.371 38.5856 133.699 38.0542 131.002 38.0542Z" fill="#FFA563"/>
<path id="Vector_35" d="M123.088 65.7136C127.785 72.0276 135.905 72.5946 140.246 65.7136H123.088Z" fill="#FFA563"/>
</g>
<g id="heart-1">
<path d="M76.203 79.2544L57.9348 60.9861C55.4763 58.528 54.0666 55.2124 54.0023 51.7364C53.938 48.2604 55.2239 44.8949 57.5898 42.3475C59.9556 39.8001 63.2171 38.2693 66.6883 38.0769C70.1596 37.8846 73.5702 39.0457 76.203 41.3161C78.8359 39.0461 82.2464 37.8853 85.7175 38.0777C89.1885 38.2702 92.4497 39.801 94.8155 42.3482C97.1812 44.8954 98.4673 48.2607 98.4032 51.7365C98.339 55.2123 96.9298 58.5278 94.4718 60.9861L76.203 79.2544Z" fill="#F84C9F"/>
<path d="M76.203 79.2544L57.9348 60.9861C55.4763 58.528 54.0666 55.2124 54.0023 51.7364C53.938 48.2604 55.2239 44.8949 57.5898 42.3475C59.9556 39.8001 63.2171 38.2693 66.6883 38.0769C70.1596 37.8846 73.5702 39.0457 76.203 41.3161C78.8359 39.0461 82.2464 37.8853 85.7175 38.0777C89.1885 38.2702 92.4497 39.801 94.8155 42.3482C97.1812 44.8954 98.4673 48.2607 98.4032 51.7365C98.339 55.2123 96.9298 58.5278 94.4718 60.9861L76.203 79.2544Z" stroke="black"/>
</g>
</g>
</g>
</g>
<defs>
<filter id="filter0_d_0_1" x="126.79" y="11.1105" width="352.018" height="104.385" filterUnits="userSpaceOnUse" color-interpolation-filters="sRGB">
<feFlood flood-opacity="0" result="BackgroundImageFix"/>
<feColorMatrix in="SourceAlpha" type="matrix" values="0 0 0 0 0 0 0 0 0 0 0 0 0 0 0 0 0 0 127 0" result="hardAlpha"/>
<feOffset dy="4"/>
<feGaussianBlur stdDeviation="2"/>
<feComposite in2="hardAlpha" operator="out"/>
<feColorMatrix type="matrix" values="0 0 0 0 0 0 0 0 0 0 0 0 0 0 0 0 0 0 0.25 0"/>
<feBlend mode="normal" in2="BackgroundImageFix" result="effect1_dropShadow_0_1"/>
<feBlend mode="normal" in="SourceGraphic" in2="effect1_dropShadow_0_1" result="shape"/>
</filter>
<filter id="filter1_d_0_1" x="5.58875" y="182.524" width="352.018" height="104.385" filterUnits="userSpaceOnUse" color-interpolation-filters="sRGB">
<feFlood flood-opacity="0" result="BackgroundImageFix"/>
<feColorMatrix in="SourceAlpha" type="matrix" values="0 0 0 0 0 0 0 0 0 0 0 0 0 0 0 0 0 0 127 0" result="hardAlpha"/>
<feOffset dy="4"/>
<feGaussianBlur stdDeviation="2"/>
<feComposite in2="hardAlpha" operator="out"/>
<feColorMatrix type="matrix" values="0 0 0 0 0 0 0 0 0 0 0 0 0 0 0 0 0 0 0.25 0"/>
<feBlend mode="normal" in2="BackgroundImageFix" result="effect1_dropShadow_0_1"/>
<feBlend mode="normal" in="SourceGraphic" in2="effect1_dropShadow_0_1" result="shape"/>
</filter>
</defs>
</svg>
